<?xml version="1.0" standalone="no"?>
<!DOCTYPE svg PUBLIC "-//W3C//DTD SVG 20010904//EN"
 "http://www.w3.org/TR/2001/REC-SVG-20010904/DTD/svg10.dtd">
<svg version="1.0" xmlns="http://www.w3.org/2000/svg"
 width="260.000000pt" height="260.000000pt" viewBox="0 0 260.000000 260.000000"
 preserveAspectRatio="xMidYMid meet">
<metadata>
Created by potrace 1.11, written by Peter Selinger 2001-2013
</metadata>
<g transform="translate(0.000000,260.000000) scale(0.100000,-0.100000)"
fill="#000000" stroke="none">
<path d="M299 2451 c-1 -3 -2 -117 -3 -253 l-2 -248 50 -1 c28 0 246 0 484 -1
237 0 432 -2 432 -5 0 -2 -148 -153 -330 -335 -181 -181 -330 -332 -330 -333
0 -2 47 -4 105 -3 l105 0 414 414 414 414 -594 0 c-327 0 -594 3 -594 8 -1 4
-2 49 -3 100 l-2 92 30 1 c151 3 1697 0 1701 -3 2 -3 -479 -489 -1071 -1080
-591 -592 -1075 -1078 -1075 -1081 0 -3 503 -6 1118 -6 l1117 0 1 259 c0 143
-3 260 -6 261 -3 0 -220 1 -482 1 -263 1 -478 3 -478 6 0 2 129 132 286 290
157 157 286 290 287 296 1 6 -39 9 -102 8 l-104 -3 -368 -368 c-203 -203 -369
-372 -369 -375 0 -3 266 -6 590 -6 465 0 590 -3 591 -12 2 -48 -1 -192 -5
-195 -6 -7 -1706 -9 -1706 -3 0 3 487 492 1081 1086 l1081 1081 -1131 1 c-622
0 -1132 -3 -1132 -7z"/>
</g>
</svg>
