<svg xmlns="http://www.w3.org/2000/svg" xmlns:xlink="http://www.w3.org/1999/xlink" viewBox="0 0 688.17 221.25"><defs><linearGradient id="a" y1="125.19" x2="688.17" y2="125.19" gradientUnits="userSpaceOnUse"><stop offset="0" stop-color="#2f2f71"/><stop offset="0.35" stop-color="#029b92"/><stop offset="0.6" stop-color="#391669"/><stop offset="0.81" stop-color="#1d5a7e"/><stop offset="0.9" stop-color="#391669"/><stop offset="1" stop-color="#15101c"/></linearGradient></defs><path d="M131.32,28.23V26.58h4.48v5.61a3.05,3.05,0,0,1-.79,2.3,2.82,2.82,0,0,1-2,.76,3.65,3.65,0,0,1-2.71-1.19l1-1.38a2.23,2.23,0,0,0,1.62.84.91.91,0,0,0,.69-.31,1.35,1.35,0,0,0,.29-.94v-4Z" transform="translate(-1.92 -26.58)" style="fill:#6d6d6d"/><path d="M143.84,35.18l-.8-1.86h-3.6l-.8,1.86h-2l3.71-8.6h1.86l3.71,8.6Zm-2.59-6-1.08,2.5h2.15Z" transform="translate(-1.92 -26.58)" style="fill:#6d6d6d"/><path d="M152.89,26.58h1.92v8.6h-1.92l-4.09-5.39v5.39h-1.92v-8.6h1.8l4.22,5.53Z" transform="translate(-1.92 -26.58)" style="fill:#6d6d6d"/><path d="M136.88,49.94l-1.78-2.74-.58,0h-2.29v2.72h-1V41.33h3.27a3.76,3.76,0,0,1,2.5.76,2.64,2.64,0,0,1,.89,2.13,3,3,0,0,1-.5,1.77A2.72,2.72,0,0,1,136,47l2,2.93Zm-4.65-3.66h2.29a2.81,2.81,0,0,0,1.81-.52,1.84,1.84,0,0,0,.63-1.51,1.76,1.76,0,0,0-.63-1.47,2.88,2.88,0,0,0-1.81-.5h-2.29Z" transform="translate(-1.92 -26.58)" style="fill:#6d6d6d"/><path d="M143,42.3v2.8q.63.2,1,.34a5,5,0,0,1,.8.43,1.78,1.78,0,0,1,.66.72,2.32,2.32,0,0,1,.21,1,2,2,0,0,1-.72,1.61,3.25,3.25,0,0,1-1.92.73v1.64h-.75V50a4.87,4.87,0,0,1-3-1.3l.44-.89A4.08,4.08,0,0,0,142.24,49v-3q-.58-.17-.93-.32a4.71,4.71,0,0,1-.77-.42,1.7,1.7,0,0,1-.61-.69,2.23,2.23,0,0,1-.2-1A1.91,1.91,0,0,1,140.4,42a3.14,3.14,0,0,1,1.84-.69v-1.5H143V41.3a4.72,4.72,0,0,1,2.43.79L145,43A4.46,4.46,0,0,0,143,42.3Zm-2.19,1.13a1.1,1.1,0,0,0,.37.87,3.3,3.3,0,0,0,1.07.57V42.31a2,2,0,0,0-1.06.36A.92.92,0,0,0,140.8,43.43Zm3.75,4.23a1.13,1.13,0,0,0-.4-.92,3.52,3.52,0,0,0-1.16-.58V49a2.14,2.14,0,0,0,1.15-.43A1.09,1.09,0,0,0,144.55,47.66Z" transform="translate(-1.92 -26.58)" style="fill:#6d6d6d"/><path d="M149.26,49.94h-1V42.26h-1.75v-.93h2.72Z" transform="translate(-1.92 -26.58)" style="fill:#6d6d6d"/><path d="M154.29,41.29a3,3,0,0,1,1.91.57,1.88,1.88,0,0,1,.71,1.54,4.52,4.52,0,0,1-1.52,2.79L152.74,49h4.66v.93h-5.92v-.81l3.22-3.5a5.27,5.27,0,0,0,.86-1.1,2,2,0,0,0,.32-1,1.18,1.18,0,0,0-.45-1,2,2,0,0,0-1.27-.36,3.35,3.35,0,0,0-2.35,1.07l-.43-.79A4.26,4.26,0,0,1,154.29,41.29Z" transform="translate(-1.92 -26.58)" style="fill:#6d6d6d"/><path d="M159.27,48.76a.55.55,0,0,1,.42.18.69.69,0,0,1,0,.91.55.55,0,0,1-.42.18.57.57,0,0,1-.43-.18.69.69,0,0,1,0-.91A.57.57,0,0,1,159.27,48.76Z" transform="translate(-1.92 -26.58)" style="fill:#6d6d6d"/><path d="M166.5,42.27h-4.08V44.7a8.85,8.85,0,0,1,1.45-.12,3.14,3.14,0,0,1,2.15.71,2.33,2.33,0,0,1,.81,1.83,2.69,2.69,0,0,1-.83,2.07,3.11,3.11,0,0,1-2.21.77,4.92,4.92,0,0,1-1.5-.25,5.18,5.18,0,0,1-1.4-.68l.41-.84a3.89,3.89,0,0,0,2.4.86,2.2,2.2,0,0,0,1.53-.5,1.75,1.75,0,0,0,.56-1.36,1.47,1.47,0,0,0-.56-1.21,2.34,2.34,0,0,0-1.51-.45,11.27,11.27,0,0,0-2.21.21v-4.4h5Z" transform="translate(-1.92 -26.58)" style="fill:#6d6d6d"/><path d="M169,42.42a3.65,3.65,0,0,1,5.26,0,4.93,4.93,0,0,1,.92,3.21,4.93,4.93,0,0,1-.92,3.21,3.65,3.65,0,0,1-5.26,0,4.93,4.93,0,0,1-.92-3.21A4.93,4.93,0,0,1,169,42.42Zm5.19,3.21q0-3.49-2.56-3.49t-2.56,3.49q0,3.49,2.56,3.49T174.2,45.63Z" transform="translate(-1.92 -26.58)" style="fill:#6d6d6d"/><path d="M177.42,42.42a3.65,3.65,0,0,1,5.26,0,4.93,4.93,0,0,1,.92,3.21,4.93,4.93,0,0,1-.92,3.21,3.65,3.65,0,0,1-5.26,0,4.93,4.93,0,0,1-.92-3.21A4.93,4.93,0,0,1,177.42,42.42Zm5.19,3.21q0-3.49-2.56-3.49t-2.56,3.49q0,3.49,2.56,3.49T182.61,45.63Z" transform="translate(-1.92 -26.58)" style="fill:#6d6d6d"/><path d="M465,231.43l-.8-1.86h-3.6l-.8,1.86h-2l3.71-8.6h1.86l3.71,8.6Zm-2.59-6-1.08,2.5h2.15Z" transform="translate(-1.92 -26.58)" style="fill:#6d6d6d"/><path d="M471.79,231.43H468v-8.6h3.34a4.83,4.83,0,0,1,1.51.21,2.17,2.17,0,0,1,1,.57,2.23,2.23,0,0,1,.58,1.5,1.76,1.76,0,0,1-.65,1.5,2.37,2.37,0,0,1-.31.22l-.31.14a2.26,2.26,0,0,1,1.27.72,2,2,0,0,1,.47,1.36,2.31,2.31,0,0,1-.61,1.59A3.21,3.21,0,0,1,471.79,231.43Zm-1.84-5.12h.91a3.09,3.09,0,0,0,1.19-.17.73.73,0,0,0,.39-.74.77.77,0,0,0-.36-.76,2.82,2.82,0,0,0-1.21-.18h-.92Zm0,3.49h1.32a2.9,2.9,0,0,0,1.24-.2.8.8,0,0,0,.41-.8.77.77,0,0,0-.44-.79,3.75,3.75,0,0,0-1.4-.19h-1.13Z" transform="translate(-1.92 -26.58)" style="fill:#6d6d6d"/><path d="M483.47,225.69a2.53,2.53,0,0,1-1.64,2.67l2.18,3.07h-2.36l-1.91-2.74h-1.33v2.74H476.5v-8.6h3.26a4.68,4.68,0,0,1,2.86.68A2.61,2.61,0,0,1,483.47,225.69Zm-2.31,1a1.3,1.3,0,0,0,.36-1,1.09,1.09,0,0,0-.37-1,2.36,2.36,0,0,0-1.29-.26h-1.44V227h1.4A2.06,2.06,0,0,0,481.16,226.71Z" transform="translate(-1.92 -26.58)" style="fill:#6d6d6d"/><path d="M464.74,246.19,463,243.44l-.58,0h-2.29v2.72h-1v-8.61h3.27a3.76,3.76,0,0,1,2.5.76,2.65,2.65,0,0,1,.89,2.13,3,3,0,0,1-.5,1.77,2.72,2.72,0,0,1-1.43,1l2,2.93Zm-4.65-3.66h2.29a2.8,2.8,0,0,0,1.81-.52,1.84,1.84,0,0,0,.63-1.51,1.76,1.76,0,0,0-.63-1.47,2.88,2.88,0,0,0-1.81-.5h-2.29Z" transform="translate(-1.92 -26.58)" style="fill:#6d6d6d"/><path d="M470.85,238.55v2.8q.63.2,1,.34a4.93,4.93,0,0,1,.8.43,1.78,1.78,0,0,1,.66.72,2.32,2.32,0,0,1,.21,1,2,2,0,0,1-.72,1.61,3.25,3.25,0,0,1-1.92.73v1.64h-.75v-1.62a4.87,4.87,0,0,1-3-1.3l.44-.88a4.08,4.08,0,0,0,2.57,1.21v-3q-.58-.17-.93-.32a4.71,4.71,0,0,1-.77-.42,1.7,1.7,0,0,1-.61-.69,2.22,2.22,0,0,1-.2-1,1.91,1.91,0,0,1,.68-1.51,3.14,3.14,0,0,1,1.84-.69v-1.5h.75v1.49a4.72,4.72,0,0,1,2.43.79l-.42.92A4.46,4.46,0,0,0,470.85,238.55Zm-2.19,1.13a1.1,1.1,0,0,0,.37.87,3.29,3.29,0,0,0,1.07.57v-2.56a2,2,0,0,0-1.06.36A.92.92,0,0,0,468.66,239.68Zm3.75,4.23a1.14,1.14,0,0,0-.4-.92,3.53,3.53,0,0,0-1.16-.58v2.8a2.15,2.15,0,0,0,1.15-.43A1.09,1.09,0,0,0,472.41,243.91Z" transform="translate(-1.92 -26.58)" style="fill:#6d6d6d"/><path d="M478.39,237.54a5.17,5.17,0,0,1,2.43.61l-.39.79a3.83,3.83,0,0,0-2-.53,2.29,2.29,0,0,0-2,1,4.55,4.55,0,0,0-.58,2.8,2.23,2.23,0,0,1,1-1.17,3.07,3.07,0,0,1,1.62-.41,2.7,2.7,0,0,1,2,.73,2.67,2.67,0,0,1,.73,2,2.77,2.77,0,0,1-.79,2.08,2.92,2.92,0,0,1-2.12.77,3,3,0,0,1-2.47-1.09,4.74,4.74,0,0,1-.89-3.07,5.24,5.24,0,0,1,1-3.29A3.09,3.09,0,0,1,478.39,237.54Zm-.17,4a2.2,2.2,0,0,0-1.58.57,1.78,1.78,0,0,0-.58,1.36,1.81,1.81,0,0,0,.54,1.3,2,2,0,0,0,1.56.58,2.09,2.09,0,0,0,1.49-.53,1.86,1.86,0,0,0,.57-1.43,1.76,1.76,0,0,0-.54-1.36A2,2,0,0,0,478.22,241.51Z" transform="translate(-1.92 -26.58)" style="fill:#6d6d6d"/><path d="M482.85,245a.55.55,0,0,1,.42.18.69.69,0,0,1,0,.91.55.55,0,0,1-.42.18.57.57,0,0,1-.43-.18.69.69,0,0,1,0-.91A.57.57,0,0,1,482.85,245Z" transform="translate(-1.92 -26.58)" style="fill:#6d6d6d"/><path d="M490.09,238.53H486v2.42a8.81,8.81,0,0,1,1.45-.12,3.14,3.14,0,0,1,2.15.71,2.33,2.33,0,0,1,.81,1.83,2.69,2.69,0,0,1-.83,2.07,3.11,3.11,0,0,1-2.21.78,4.91,4.91,0,0,1-1.5-.25,5.17,5.17,0,0,1-1.4-.68l.41-.84a3.9,3.9,0,0,0,2.4.86,2.2,2.2,0,0,0,1.53-.5,1.75,1.75,0,0,0,.56-1.36,1.47,1.47,0,0,0-.56-1.21,2.34,2.34,0,0,0-1.51-.45,11.28,11.28,0,0,0-2.21.21v-4.4h5Z" transform="translate(-1.92 -26.58)" style="fill:#6d6d6d"/><path d="M492.59,238.67a3.65,3.65,0,0,1,5.26,0,6,6,0,0,1,0,6.42,3.65,3.65,0,0,1-5.26,0,6,6,0,0,1,0-6.42Zm5.19,3.21q0-3.49-2.56-3.49t-2.56,3.49q0,3.49,2.56,3.49T497.78,241.88Z" transform="translate(-1.92 -26.58)" style="fill:#6d6d6d"/><path d="M501,238.67a3.65,3.65,0,0,1,5.26,0,6,6,0,0,1,0,6.42,3.65,3.65,0,0,1-5.26,0,6,6,0,0,1,0-6.42Zm5.19,3.21q0-3.49-2.56-3.49t-2.56,3.49q0,3.49,2.56,3.49T506.19,241.88Z" transform="translate(-1.92 -26.58)" style="fill:#6d6d6d"/><polyline points="0.75 123.08 214.75 47.08 446.5 153.08 552.08 98.08 687.42 203.36" style="fill:none;stroke-linecap:round;stroke-miterlimit:10;stroke-width:1.5px;stroke:url(#a)"/></svg>
